<?xml version="1.0" encoding="UTF-8"?>
<svg xmlns="http://www.w3.org/2000/svg" width="1400" height="260" viewBox="0 0 1400 260" fill="none">
  <path d="M318.845 90.8329V2.49969H343.304V36.6057L372.932 2.49969H401.249L369.073 39.1031L403.87 90.8329H375.552L352.986 57.369L343.304 68.0718V90.7615H318.845V90.8329Z" fill="#11253D"></path>
  <path d="M433.209 79.771C423.673 70.7094 418.868 59.6499 418.868 46.6639C418.868 33.6066 423.673 22.5471 433.209 13.5568C442.818 4.49516 454.756 0 469.097 0C483.437 0 495.376 4.49516 504.985 13.5568C514.521 22.6184 519.325 33.6779 519.325 46.6639C519.325 59.7212 514.521 70.7807 504.985 79.771C495.376 88.8326 483.437 93.3278 469.097 93.3278C454.756 93.3992 442.818 88.8326 433.209 79.771ZM451.262 29.1827C446.385 33.9633 443.982 39.7428 443.982 46.6639C443.982 53.585 446.385 59.3645 451.262 64.145C456.139 68.9256 462.036 71.2802 469.097 71.2802C476.158 71.2802 482.054 68.9256 486.932 64.145C491.809 59.3645 494.211 53.585 494.211 46.6639C494.211 39.7428 491.809 33.9633 486.932 29.1827C482.054 24.4022 476.158 22.0476 469.097 22.0476C462.109 22.0476 456.139 24.4022 451.262 29.1827Z" fill="#11253D"></path>
  <path d="M547.27 90.8329V2.49969H587.816C597.717 2.49969 605.724 5.42513 611.984 11.276C618.245 17.1268 621.302 24.476 621.302 33.3949C621.302 42.3139 618.172 49.7344 611.984 55.5139C605.797 61.2933 597.717 64.2901 587.816 64.2901H571.729V90.8329H547.27V90.8329ZM571.729 42.8847H586.506C589.345 42.8847 591.747 41.9571 593.786 40.0306C595.824 38.1041 596.843 35.8922 596.843 33.3949C596.843 30.8976 595.824 28.6857 593.786 26.7592C591.747 24.8327 589.345 23.9052 586.506 23.9052H571.729V42.8847Z" fill="#11253D"></path>
  <path d="M649.257 90.8329V2.49969H729.768V90.8329H705.309V25.1895H673.789V90.8329H649.257V90.8329Z" fill="#11253D"></path>
  <path d="M772.07 79.771C762.534 70.7094 757.729 59.6499 757.729 46.6639C757.729 33.6066 762.534 22.5471 772.07 13.5568C781.679 4.49516 793.618 0 807.958 0C822.299 0 834.237 4.49516 843.846 13.5568C853.383 22.6184 858.187 33.6779 858.187 46.6639C858.187 59.7212 853.383 70.7807 843.846 79.771C834.237 88.8326 822.299 93.3278 807.958 93.3278C793.618 93.3992 781.679 88.8326 772.07 79.771ZM790.123 29.1827C785.246 33.9633 782.844 39.7428 782.844 46.6639C782.844 53.585 785.246 59.3645 790.123 64.145C795.001 68.9256 800.897 71.2802 807.958 71.2802C815.019 71.2802 820.916 68.9256 825.793 64.145C830.67 59.3645 833.073 53.585 833.073 46.6639C833.073 39.7428 830.67 33.9633 825.793 29.1827C820.916 24.4022 815.019 22.0476 807.958 22.0476C800.897 22.0476 795.001 24.4022 790.123 29.1827Z" fill="#11253D"></path>
  <path d="M886.132 90.8329V2.49969H926.679C936.579 2.49969 944.586 5.42513 950.847 11.276C957.107 17.1268 960.164 24.476 960.164 33.3949C960.164 42.3139 957.034 49.7344 950.847 55.5139C944.659 61.2933 936.579 64.2901 926.679 64.2901H910.591V90.8329H886.132V90.8329ZM910.591 42.8847H925.368C928.207 42.8847 930.61 41.9571 932.648 40.0306C934.686 38.1041 935.705 35.8922 935.705 33.3949C935.705 30.8976 934.686 28.6857 932.648 26.7592C930.61 24.8327 928.207 23.9052 925.368 23.9052H910.591V42.8847Z" fill="#11253D"></path>
  <path d="M977.204 90.8329L1011.34 2.49969H1038.42L1072.57 90.8329H1046.14L1039.74 71.9247H1010.11L1003.7 90.8329H977.204ZM1016.44 52.3744H1033.18L1025.1 27.116H1024.59L1016.44 52.3744Z" fill="#11253D"></path>
  <path d="M1094.62 90.8329V2.49969H1119.08V68.1431H1149.37V2.49969H1173.82V68.1431H1184.16V108.528H1159.7V90.8329H1094.62V90.8329Z" fill="#11253D"></path>
  <path d="M1209.57 90.8329V2.49969H1234.03V51.0901L1272.68 2.49969H1293.94V90.8329H1269.48V42.2425L1230.82 90.8329H1209.57V90.8329Z" fill="#11253D"></path>
  <path d="M1319.93 90.8313L1338.64 58.0096C1335.73 56.6539 1333.18 54.7988 1330.92 52.4442C1325.75 47.3782 1323.21 40.8139 1323.21 32.7511C1323.21 24.189 1326.26 16.9825 1332.45 11.1317C1338.64 5.35218 1346.5 2.42676 1356.04 2.42676H1398.55V90.76H1374.09V63.0042H1360.55L1345.77 90.76H1319.93V90.8313ZM1357.27 41.5988H1374.02V23.9036H1357.27C1354.44 23.9036 1352.11 24.7598 1350.29 26.4009C1348.47 28.042 1347.59 30.1825 1347.59 32.6798C1347.59 35.1771 1348.47 37.3177 1350.29 38.9588C1352.11 40.8139 1354.44 41.5988 1357.27 41.5988Z" fill="#11253D"></path>
  <path d="M420.686 208.06L443.107 232.89C438.666 237.885 433.643 242.166 427.892 245.876C415.153 254.438 400.449 258.648 383.633 258.648C361.94 258.648 343.814 251.798 329.328 238.099C314.841 224.399 307.635 207.703 307.635 187.939C307.635 168.174 314.841 151.478 329.328 137.779C343.814 124.079 361.867 117.229 383.633 117.229C400.012 117.229 414.644 121.582 427.456 130.215C433.134 134.14 438.011 138.421 442.087 142.987L419.667 167.818C416.682 164.607 413.333 161.753 409.694 159.255C401.249 153.547 392.514 150.693 383.56 150.693C372.932 150.693 363.905 154.261 356.553 161.467C349.201 168.674 345.561 177.45 345.561 187.939C345.561 198.427 349.201 207.204 356.553 214.41C363.905 221.617 372.859 225.184 383.56 225.184C392.368 225.184 401.249 222.33 410.058 216.622C414.061 214.053 417.556 211.199 420.686 208.06Z" fill="#11253D"></path>
  <path d="M459.268 254.866V121.154H496.32V194.717L554.775 121.154H586.95V254.866H549.898V181.303L491.443 254.866H459.268Z" fill="#11253D"></path>
  <path d="M614.753 254.866V121.154H651.806V169.887H701.525V121.154H738.578V254.866H701.525V204.278H651.806V254.866H614.753Z" fill="#11253D"></path>
  <path d="M766.388 254.866V121.154H870.63V153.618H803.44V172.741H855.052V203.279H803.44V222.401H872.596V254.866H766.388V254.866Z" fill="#11253D"></path>
  <path d="M892.611 254.866V121.154H953.978C968.901 121.154 981.13 125.577 990.521 134.425C999.911 143.272 1004.64 154.475 1004.64 167.96C1004.64 181.446 999.911 192.648 990.521 201.495C981.13 210.343 968.901 214.767 953.978 214.767H929.591V254.866H892.611ZM929.664 182.23H952.085C956.38 182.23 960.02 180.803 963.077 177.949C966.134 175.095 967.663 171.742 967.663 167.889C967.663 164.036 966.134 160.754 963.077 157.828C960.02 154.974 956.38 153.547 952.085 153.547H929.664V182.23Z" fill="#11253D"></path>
  <path d="M1024.74 254.866V121.154H1120.25V155.545H1061.79V254.866H1024.74Z" fill="#11253D"></path>
  <path d="M1136.4 254.866V121.154H1173.46V194.717L1231.91 121.154H1264.09V254.866H1227.03V181.303L1168.58 254.866H1136.4Z" fill="#11253D"></path>
  <path d="M1281.2 254.867L1309.44 205.206C1305 203.137 1301.14 200.354 1297.72 196.787C1289.93 189.152 1286 179.234 1286 166.962C1286 153.976 1290.66 143.059 1300.05 134.283C1309.44 125.507 1321.31 121.083 1335.72 121.083H1400V254.796H1362.95V212.77H1342.49L1320.07 254.796H1281.2V254.867ZM1337.69 180.376H1363.02V153.619H1337.69C1333.39 153.619 1329.9 154.904 1327.13 157.472C1324.44 160.041 1323.05 163.18 1323.05 167.033C1323.05 170.886 1324.44 174.026 1327.13 176.594C1329.9 179.092 1333.39 180.376 1337.69 180.376Z" fill="#11253D"></path>
  <path d="M157.532 154.473L131.326 128.787L157.532 103.1V51.6558L78.8408 128.787L157.532 205.918V154.473Z" fill="#FF0040"></path>
  <path d="M0 0.151611V257.517H262.572V0.151611H0V0.151611ZM225.083 220.699H37.4895V36.8977H225.01V220.699H225.083Z" fill="#FF0040"></path>
</svg>
