<?xml version="1.0" encoding="UTF-8"?>
<svg xmlns="http://www.w3.org/2000/svg" width="251" height="60" viewBox="0 0 251 60">
  <g fill="none" fill-rule="nonzero">
    <path fill="#EC412C" d="M29.775 4.926v9.852c-8.17 0-14.764 6.601-14.764 14.779H8.76l3.593 17.438a24.615 24.615 0 0 0 17.422 7.192v-4.926c10.877 0 19.686-8.818 19.686-19.704h4.921c0-13.596-11.024-24.63-24.607-24.63z"></path>
    <path fill="#000" d="M29.775 59.113c16.29 0 29.529-13.251 29.529-29.556h-4.922c0 13.596-11.024 24.63-24.607 24.63v4.926zM12.353 46.995c-9.597-9.606-9.597-25.222 0-34.828l3.494 3.498c-7.677 7.685-7.677 20.197 0 27.882l-3.494 3.448z"></path>
    <path fill="#000" d="M.246 29.557C.246 13.25 13.485 0 29.775 0v1.182c-15.65 0-28.348 12.71-28.348 28.375H.247zM33.27 26.059a4.909 4.909 0 0 1 0 6.946l.836.837c2.362-2.364 2.362-6.256 0-8.62l-.837.837zM44.54 29.557c0-8.129-6.645-14.779-14.765-14.779v1.183c7.48 0 13.583 6.108 13.583 13.596h1.181zM15.01 29.557c0 8.128 6.645 14.778 14.765 14.778v-1.182c-7.48 0-13.583-6.109-13.583-13.596H15.01z"></path>
    <g fill="#000">
      <path d="M88.882 28.867c1.575-.838 2.412-2.414 2.412-4.04 0-3.793-3.495-5.467-6.25-5.467-1.92 0-3.889.64-5.316 1.576l1.083 2.364s1.87-1.231 4.232-1.231c2.855 0 3.445 1.97 3.445 2.857 0 1.823-1.28 2.906-3.445 2.906h-2.116v2.414h2.116c2.363 0 3.84 1.33 3.84 3.153 0 1.428-1.133 3.645-4.037 3.645-2.756 0-4.773-1.38-4.773-1.38L78.99 38.03c1.427.887 3.642 1.725 5.856 1.725 3.888 0 6.792-2.562 6.792-6.355.05-1.921-1.033-3.596-2.756-4.532zM105.27 19.704L96.413 39.41h3.297l2.067-4.779h8.564l2.067 4.779h3.297l-8.858-19.705h-1.575zm-2.362 12.316l3.15-7.39 3.15 7.39h-6.3zM219.35 19.704h-1.476V39.41h11.271v-2.611h-8.269v-6.552h7.629v-2.61h-7.629v-5.32h8.269v-2.612h-8.269zM206.26 27.635h-8.76v-7.93h-2.953v19.704h2.952v-9.163h8.76v9.163h2.954V19.704h-2.953zM165.805 19.704l-11.369 13.744V19.704h-2.953V39.41h1.526l11.369-13.744v13.744h2.953V19.704zM137.064 27.832h-2.215v-5.517h7.579v-2.61h-10.532v19.704h5.217c3.888 0 6.791-2.02 6.791-5.813-.049-3.744-2.953-5.764-6.84-5.764zm0 9.163h-2.215v-6.749h2.264c3.002 0 4.035 1.97 4.035 3.4-.049 1.378-1.033 3.349-4.084 3.349zM183.965 28.867c1.575-.838 2.412-2.414 2.412-4.04 0-3.793-3.494-5.467-6.25-5.467-1.92 0-3.888.64-5.316 1.576l1.083 2.364s1.87-1.231 4.233-1.231c2.854 0 3.445 1.97 3.445 2.857 0 1.823-1.28 2.906-3.445 2.906h-2.117v2.414h2.117c2.362 0 3.838 1.33 3.838 3.153 0 1.428-1.132 3.645-4.035 3.645-2.756 0-4.774-1.38-4.774-1.38l-1.083 2.365c1.427.887 3.642 1.725 5.857 1.725 3.888 0 6.791-2.562 6.791-6.355.05-1.921-1.033-3.596-2.756-4.532zM245.189 36.946c-4.036 0-7.333-3.3-7.333-7.39 0-4.088 3.297-7.389 7.333-7.389 1.476 0 2.805.444 3.986 1.183l1.624-2.316a10.105 10.105 0 0 0-5.66-1.724c-5.66 0-10.236 4.582-10.236 10.247s4.577 10.246 10.236 10.246c2.067 0 4.036-.64 5.66-1.724l-1.624-2.316c-1.181.74-2.51 1.183-3.986 1.183z"></path>
    </g>
  </g>
</svg>
